<svg
  xmlns="http://www.w3.org/2000/svg"
  xmlns:xlink="http://www.w3.org/1999/xlink"
>
  <defs>
    <symbol viewBox="0 0 24 24" id="ic-baseline-arrow-right"><path fill="currentColor" d="m10 17l5-5l-5-5z"></path></symbol>
    <symbol viewBox="0 0 24 24" id="ic-baseline-arrow-drop-down"><path fill="currentColor" d="m7 10l5 5l5-5z"></path></symbol>
    <symbol viewBox="0 0 24 24" fill="none" id="download"><path stroke="currentColor" stroke-linecap="round" stroke-linejoin="round" stroke-width="2" d="M12 13V4M7 14H5a1 1 0 0 0-1 1v4a1 1 0 0 0 1 1h14a1 1 0 0 0 1-1v-4a1 1 0 0 0-1-1h-2m-1-5-4 5-4-5m9 8h.01"></path></symbol>
    <symbol viewBox="0 0 24 24" fill="none" id="arrow-up-right"><path stroke="currentColor" stroke-linecap="round" stroke-linejoin="round" stroke-width="2" d="M18 14v4.833A1.166 1.166 0 0 1 16.833 20H5.167A1.167 1.167 0 0 1 4 18.833V7.167A1.166 1.166 0 0 1 5.167 6h4.618m4.447-2H20v5.768m-7.889 2.121 7.778-7.778"/></symbol>
  </defs>
</svg>